<svg xmlns="http://www.w3.org/2000/svg" width="19" height="20" fill="none"><path fill="#161616" d="M11.707 4.577c.727-.584 1.476-1.369 1.856-2.324a1.623 1.623 0 0 0-.17-1.513A1.682 1.682 0 0 0 12 0H7c-.557 0-1.078.277-1.392.74a1.626 1.626 0 0 0-.171 1.513c.38.954 1.129 1.74 1.856 2.324C3.413 6.018.333 10.966.333 15c0 2.758 2.243 5 5 5h8.334c2.757 0 5-2.242 5-5 0-4.034-3.08-8.982-6.96-10.422Zm.307-2.94c-.43 1.081-1.745 1.995-2.516 2.425C8.73 3.635 7.42 2.73 7 1.667l5.015-.03Zm1.652 16.696H5.333A3.337 3.337 0 0 1 2 15c0-4.37 3.925-9.167 7.5-9.167S17 10.631 17 15a3.337 3.337 0 0 1-3.334 3.333Zm-4.167 0a.834.834 0 0 1-.833-.833v-.833h-.223c-.89 0-1.72-.479-2.165-1.25a.834.834 0 0 1 1.442-.834.838.838 0 0 0 .723.417h1.89c.459 0 .833-.374.833-.833a.64.64 0 0 0-.537-.634l-2.535-.422a2.301 2.301 0 0 1-1.929-2.278c0-1.378 1.122-2.5 2.5-2.5V7.5a.834.834 0 0 1 1.667 0v.833h.223c.89 0 1.72.48 2.165 1.25a.834.834 0 0 1-1.443.835.837.837 0 0 0-.722-.417h-1.89a.835.835 0 0 0-.833.833.64.64 0 0 0 .536.633l2.535.423a2.302 2.302 0 0 1 1.93 2.277c0 1.379-1.122 2.5-2.5 2.5v.834c0 .46-.374.832-.834.832Z"/></svg>
